:SAMPLES-PER-SECOND 30
:FULLY-SPECIFIED
:DEGREES
202
root  47.5805 33.6866 5.29717 3.95593 -56.4401 -5.39331
RightUpLeg  -45.6402 -11.0821 13.2628
RightLeg  54.1383 -6.85315 -10.4943
RightFoot  -9.48959 0.159196 -13.7213
RightToes  0.000482159 0.542163 -0.142577
Spine  48.5883 -2.01173 1.85089
Spine1  -1.90391 -3.49053 5.23397
HEad  -61.5235 -19.8895 19.1305
LeftShoulder1  10.4633 -16.5534 -45.4731
LeftArm  -29.9327 5.38314 -18.5072
LeftForeArm  50.0292 -55.1289 -11.9125
LeftHand  -0.25398 0.0180481 5.50724
RightShoulder  7.207 11.8955 40.6233
RightArm  -9.12771 9.63191 31.5515
RightForeArm  2.3782 56.2088 16.8363
RightHand  -3.92018 10.3216 -28.8182
LeftUpLeg  -43.7007 8.67948 7.56176
LeftLeg  84.5979 0.25231 8.91082
LeftFoot  -9.83057 0.109107 -3.59328
LeftToes  1.06246e-005 4.65855e-005 -8.18502e-006
203
root  47.6304 34.0169 6.25696 2.41412 -58.6048 -3.12846
RightUpLeg  -44.879 -9.84723 10.1875
RightLeg  53.9596 -6.08459 -9.32324
RightFoot  -9.42525 0.133579 -11.7167
RightToes  0.000482159 0.542163 -0.142577
Spine  50.1425 -0.927349 0.0433064
Spine1  -3.22448 -3.00841 5.23083
HEad  -62.4289 -19.7423 19.5862
LeftShoulder1  10.4524 -16.7196 -45.034
LeftArm  -29.8879 6.11829 -18.7103
LeftForeArm  50.3772 -54.9406 -11.7941
LeftHand  -0.25398 0.0180481 5.50724
RightShoulder  7.30772 11.9919 40.9608
RightArm  -7.29451 11.9415 32.7489
RightForeArm  6.99345 59.9255 19.2536
RightHand  -3.58562 9.55811 -27.7368
LeftUpLeg  -45.3932 3.9404 10.7339
LeftLeg  72.1067 1.10111 5.26325
LeftFoot  -10.1812 0.0971602 -3.66073
LeftToes  1.06246e-005 4.65855e-005 -8.18502e-006
204
root  47.7107 34.2094 7.26952 0.726349 -60.839 -0.511383
RightUpLeg  -44.8829 -8.47731 7.10117
RightLeg  54.3333 -5.23028 -8.1991
RightFoot  -9.7097 0.06998 -9.45857
RightToes  0.000482159 0.542163 -0.142577
Spine  51.4678 -0.169079 -1.31263
Spine1  -4.57044 -2.89749 5.05546
HEad  -63.6587 -19.8338 19.9059
LeftShoulder1  10.4742 -16.9235 -44.6599
LeftArm  -29.4905 7.06947 -18.8175
LeftForeArm  50.0032 -55.351 -12.0338
LeftHand  -0.25398 0.0180481 5.50724
RightShoulder  7.46195 12.2552 41.1398
RightArm  -5.1649 13.4446 34.3798
RightForeArm  13.6646 63.4793 21.998
RightHand  -2.91501 7.85411 -25.5489
LeftUpLeg  -45.0531 -0.385436 13.4097
LeftLeg  57.3442 -0.672445 -0.59752
LeftFoot  -8.6552 0.246649 -7.67295
LeftToes  1.06246e-005 4.65855e-005 -8.18502e-006
205
root  47.827 34.12 8.46211 -0.863037 -63.3131 1.29079
RightUpLeg  -45.127 -7.30232 4.47214
RightLeg  56.0572 -4.29365 -7.29197
RightFoot  -10.3882 0.000535917 -8.49729
RightToes  0.000482159 0.542163 -0.142577
Spine  52.4341 -0.104056 -1.12429
Spine1  -5.6127 -2.86632 4.32104
HEad  -64.3906 -20.4955 19.4649
LeftShoulder1  10.6176 -17.1836 -44.7019
LeftArm  -28.4897 7.72379 -18.8062
LeftForeArm  49.4092 -55.6976 -12.2624
LeftHand  -0.25398 0.0180481 5.50724
RightShoulder  7.56085 12.4709 41.1197
RightArm  -3.18531 13.9227 36.0815
RightForeArm  20.8094 66.7627 25.2259
RightHand  -2.35189 6.25438 -23.539
LeftUpLeg  -43.7129 -2.93155 14.7253
LeftLeg  47.525 -3.73284 -4.05572
LeftFoot  -6.16454 0.640593 -13.4422
LeftToes  1.06246e-005 4.65855e-005 -8.18502e-006
206
root  48.0276 33.9933 9.63627 -2.9006 -65.8494 2.54044
RightUpLeg  -44.5595 -5.73558 1.91927
RightLeg  57.5263 -3.57824 -6.52442
RightFoot  -10.766 -0.0363854 -7.18959
RightToes  0.000482159 0.542163 -0.142577
Spine  53.5818 -0.316432 -0.808158
Spine1  -6.03015 -2.5452 2.84272
HEad  -64.0346 -21.3663 18.2157
LeftShoulder1  10.7881 -17.3033 -45.179
LeftArm  -27.2982 8.00145 -19.0496
LeftForeArm  49.5482 -56.0303 -12.4299
LeftHand  -0.25398 0.0180481 5.50724
RightShoulder  7.61059 12.5908 41.0783
RightArm  -1.25772 14.0454 37.449
RightForeArm  27.0642 69.0933 28.0595
RightHand  -2.09052 5.43911 -22.5182
LeftUpLeg  -42.6769 -2.60115 13.4841
LeftLeg  46.4875 -4.74668 -4.93856
LeftFoot  -4.89484 0.846165 -14.4723
LeftToes  1.06246e-005 4.65855e-005 -8.18502e-006
207
root  48.2711 33.8662 10.7554 -4.49219 -68.3669 3.19691
RightUpLeg  -43.9893 -3.5689 -0.452265
RightLeg  58.5566 -2.96999 -5.72783
RightFoot  -11.005 -0.0602317 -4.65752
RightToes  0.000482159 0.542163 -0.142577
Spine  54.4377 -0.415629 -0.777803
Spine1  -6.02411 -2.16199 1.78599
HEad  -63.2229 -21.7997 16.7808
LeftShoulder1  10.8855 -17.2207 -45.7925
LeftArm  -26.3356 7.9705 -19.6727
LeftForeArm  50.194 -56.5632 -12.6698
LeftHand  -0.25398 0.0180481 5.50724
RightShoulder  7.69475 12.7345 41.1712
RightArm  0.464789 14.2738 38.4149
RightForeArm  31.4433 70.0457 29.1477
RightHand  -2.03601 5.31748 -22.1843
LeftUpLeg  -42.409 -0.50509 11.1262
LeftLeg  50.5138 -3.68233 -4.32203
LeftFoot  -6.16296 0.569346 -11.64
LeftToes  1.06246e-005 4.65855e-005 -8.18502e-006
208
root  48.4737 33.7496 11.8422 -5.42203 -70.2762 3.99919
RightUpLeg  -44.1952 -1.73684 -2.74743
RightLeg  59.3965 -2.46141 -5.00701
RightFoot  -11.2164 -0.073716 -2.28999
RightToes  0.000482159 0.542163 -0.142577
Spine  54.4515 -0.559149 -0.766566
Spine1  -6.09915 -2.20255 1.67071
HEad  -62.9195 -21.6234 15.5984
LeftShoulder1  10.9758 -17.1635 -46.317
LeftArm  -25.3091 7.66118 -20.2776
LeftForeArm  50.7915 -57.2923 -13.0337
LeftHand  -0.25398 0.0180481 5.50724
RightShoulder  7.8138 12.8866 41.4395
RightArm  1.52745 14.1581 38.9892
RightForeArm  33.1729 69.8877 28.5227
RightHand  -2.0795 5.55515 -22.1709
LeftUpLeg  -42.7792 0.916125 8.99999
LeftLeg  53.6266 -2.46454 -3.12852
LeftFoot  -8.07789 0.30813 -9.20567
LeftToes  1.06246e-005 4.65855e-005 -8.18502e-006
209
root  48.6777 33.7586 12.8233 -6.12538 -71.2655 4.8287
RightUpLeg  -44.0988 -0.544623 -4.92421
RightLeg  59.295 -2.30733 -4.70446
RightFoot  -11.0581 -0.0732319 -0.711515
RightToes  0.000482159 0.542163 -0.142577
Spine  54.612 -0.993599 -0.526334
Spine1  -6.70802 -2.49619 1.63916
HEad  -63.1231 -21.107 14.723
LeftShoulder1  11.1351 -17.2948 -46.703
LeftArm  -23.8846 7.14734 -20.6339
LeftForeArm  51.7583 -58.3101 -13.5589
LeftHand  -0.25398 0.0180481 5.50724
RightShoulder  7.88438 12.9213 41.7477
RightArm  1.70963 13.2258 39.1235
RightForeArm  31.8459 69.0835 27.2412
RightHand  -2.17555 5.83173 -22.6098
LeftUpLeg  -43.0135 1.20862 7.16247
LeftLeg  54.3603 -2.01062 -2.53032
LeftFoot  -8.52961 0.243313 -7.87729
LeftToes  1.06246e-005 4.65855e-005 -8.18502e-006
